<?xml version="1.0" encoding="UTF-8" standalone="no"?>
<!-- Created with Inkscape (http://www.inkscape.org/) -->

<svg
   width="53.736324mm"
   height="53.736328mm"
   viewBox="0 0 53.736324 53.736328"
   version="1.1"
   id="svg1"
   xmlns="http://www.w3.org/2000/svg"
   xmlns:svg="http://www.w3.org/2000/svg">
  <defs
     id="defs1" />
  <g
     id="layer1"
     transform="translate(-88.923827,-36.175781)">
    <path
       id="rect1"
       style="fill:#ffffff;stroke:#000000;stroke-width:0"
       d="m 135.58789,36.548828 c -15.55742,15.548381 -31.11085,31.104266 -46.664062,46.658203 2.233402,2.236645 4.468429,4.471681 6.705078,6.705078 15.678704,-15.675452 31.355794,-31.352542 47.031254,-47.03125 -2.23254,-2.234914 -4.46636,-4.468542 -6.69727,-6.705078 -0.125,0.124349 -0.25,0.248698 -0.375,0.373047 z" />
    <path
       id="rect2"
       style="fill:#ffffff;stroke:#000000;stroke-width:0"
       d="m 95.255859,36.548828 c -2.113562,2.106273 -4.222652,4.220255 -6.332031,6.332031 15.676082,15.678727 31.353862,31.355779 47.033202,47.03125 2.23614,-2.233261 4.47024,-4.468569 6.70313,-6.705078 -15.67546,-15.678708 -31.35255,-31.355797 -47.031254,-47.03125 -0.124349,0.124349 -0.248698,0.248698 -0.373047,0.373047 z" />
  </g>
</svg>
